<?xml version="1.0" encoding="UTF-8" standalone="no"?>
<svg
   xmlns:dc="http://purl.org/dc/elements/1.1/"
   xmlns:cc="http://creativecommons.org/ns#"
   xmlns:rdf="http://www.w3.org/1999/02/22-rdf-syntax-ns#"
   xmlns:svg="http://www.w3.org/2000/svg"
   xmlns="http://www.w3.org/2000/svg"
   xmlns:sodipodi="http://sodipodi.sourceforge.net/DTD/sodipodi-0.dtd"
   xmlns:inkscape="http://www.inkscape.org/namespaces/inkscape"
   width="512"
   height="512"
   viewBox="0 0 135.46666 135.46667"
   version="1.1"
   id="svg2119"
   inkscape:export-filename="/home/sanches89/icon-72x72.png"
   inkscape:export-xdpi="13.5"
   inkscape:export-ydpi="13.5"
   inkscape:version="1.0.2 (e86c870879, 2021-01-15)"
   sodipodi:docname="icon.svg">
  <defs
     id="defs2113" />
  <sodipodi:namedview
     id="base"
     pagecolor="#ffffff"
     bordercolor="#666666"
     borderopacity="1.0"
     inkscape:pageopacity="0.0"
     inkscape:pageshadow="2"
     inkscape:zoom="0.98994949"
     inkscape:cx="387.45792"
     inkscape:cy="249.44379"
     inkscape:document-units="px"
     inkscape:current-layer="g2697"
     inkscape:document-rotation="0"
     showgrid="false"
     units="px"
     inkscape:window-width="1904"
     inkscape:window-height="1000"
     inkscape:window-x="8"
     inkscape:window-y="35"
     inkscape:window-maximized="0" />
  <metadata
     id="metadata2116">
    <rdf:RDF>
      <cc:Work
         rdf:about="">
        <dc:format>image/svg+xml</dc:format>
        <dc:type
           rdf:resource="http://purl.org/dc/dcmitype/StillImage" />
        <dc:title></dc:title>
      </cc:Work>
    </rdf:RDF>
  </metadata>
  <g
     inkscape:label="Layer 1"
     inkscape:groupmode="layer"
     id="layer1"
     transform="translate(-88.31956,-66.260497)">
    <g
       id="g2697"
       transform="matrix(0.882879,0,0,0.882879,21.066751,41.638902)"
       style="stroke-width:1.13266">
      <path
         d="m 118.85083,142.95256 a 6.1416311,7.6616241 48.161072 0 1 -4.39673,-1.97835 L 89.414766,109.32236 a 5.9812949,7.4616064 48.161072 0 1 2.106585,-9.50691 L 130.42996,68.291317 a 6.3408353,7.9101295 48.161072 0 1 9.95268,0.03137 v 0 a 6.3325285,7.8997664 48.161072 0 1 -2.21373,9.991144 l -28.97827,23.722219 a 3.5380723,4.4137104 48.161072 0 0 -1.23685,5.58187 l 18.36517,23.59337 a 6.1554085,7.6788113 48.161072 0 1 -7.46813,11.74124 z"
         fill="#6c63ff"
         id="path1529"
         style="stroke-width:0.299682" />
      <path
         d="m 169.92496,142.95256 a 6.1554085,7.6788113 48.161072 0 1 -2.26476,-11.74124 l 28.82105,-23.59337 a 3.5380723,4.4137104 48.161072 0 0 1.23687,-5.58188 L 179.25278,78.313828 a 6.3251825,7.8906025 48.161072 0 1 2.21403,-9.991143 v 0 a 6.3408224,7.9101133 48.161072 0 1 9.96658,-0.03137 l 24.93811,31.524132 a 5.9812755,7.4615822 48.161072 0 1 -2.10661,9.506933 l -39.06644,31.65182 a 6.1429317,7.6632467 48.161072 0 1 -5.27349,1.97839 z"
         fill="#6c63ff"
         id="path1531"
         style="stroke-width:0.299682" />
    </g>
  </g>
</svg>
