<?xml version="1.0" standalone="no"?>
<!DOCTYPE svg PUBLIC "-//W3C//DTD SVG 20010904//EN"
 "http://www.w3.org/TR/2001/REC-SVG-20010904/DTD/svg10.dtd">
<svg version="1.0" xmlns="http://www.w3.org/2000/svg"
 width="700.000000pt" height="700.000000pt" viewBox="0 0 700.000000 700.000000"
 preserveAspectRatio="xMidYMid meet">
<metadata>
Created by potrace 1.11, written by Peter Selinger 2001-2013
</metadata>
<g transform="translate(0.000000,700.000000) scale(0.100000,-0.100000)"
fill="#000000" stroke="none">
<path d="M2614 5230 c-64 -20 -111 -49 -204 -125 -41 -34 -115 -94 -165 -134
-49 -40 -99 -80 -110 -90 -11 -9 -114 -93 -230 -186 -247 -199 -641 -519 -670
-543 -11 -9 -65 -53 -120 -97 -55 -44 -102 -82 -105 -85 -6 -6 -65 -54 -215
-174 -138 -111 -169 -145 -208 -225 -25 -53 -31 -77 -30 -130 0 -36 7 -82 15
-101 9 -19 165 -224 348 -455 184 -231 364 -459 402 -508 38 -48 75 -95 83
-105 8 -9 95 -119 193 -243 204 -257 223 -272 341 -276 146 -4 289 88 363 235
27 54 31 74 32 140 0 56 -5 87 -19 112 -15 30 -89 132 -120 166 -5 6 -21 26
-35 44 -38 50 -569 732 -586 753 -63 76 -145 191 -150 211 -9 36 4 96 30 141
16 25 86 90 196 180 95 77 182 148 194 159 11 10 64 53 116 94 52 42 97 79
100 82 5 6 371 306 589 483 226 184 254 212 295 297 27 56 31 76 31 145 0 58
-5 90 -19 115 -63 120 -198 167 -342 120z"/>
<path d="M4970 5242 c-172 -55 -298 -196 -317 -353 -9 -76 12 -137 75 -220 77
-102 105 -138 117 -152 6 -7 24 -30 40 -52 17 -22 32 -42 35 -45 16 -15 629
-808 638 -827 18 -33 14 -109 -7 -152 -21 -41 -83 -100 -201 -191 -25 -19 -47
-37 -50 -40 -5 -5 -178 -147 -280 -230 -24 -19 -48 -40 -54 -45 -6 -6 -31 -26
-56 -45 -25 -19 -51 -40 -58 -47 -7 -7 -34 -29 -60 -50 -26 -21 -49 -40 -52
-43 -3 -3 -52 -43 -110 -90 -58 -46 -110 -89 -116 -95 -6 -5 -91 -75 -187
-154 -194 -157 -225 -188 -262 -261 -61 -119 -49 -246 29 -324 53 -54 116 -76
199 -72 112 6 154 29 367 203 8 6 42 34 75 60 33 26 65 53 71 58 6 6 28 24 50
40 21 17 90 73 154 125 64 52 134 109 156 127 87 70 601 487 629 510 17 13 45
36 64 51 167 133 444 362 478 394 124 120 141 302 39 423 -14 17 -100 125
-191 240 -91 116 -171 217 -178 225 -7 8 -37 47 -67 85 -30 38 -60 77 -67 85
-21 26 -147 185 -175 221 -499 632 -466 594 -528 622 -43 20 -162 32 -200 19z"/>
</g>
</svg>
