<svg xmlns="http://www.w3.org/2000/svg" width="512" height="512" viewBox="0 0 135.467 135.467"><g stroke-width="1.133" fill="#6c63ff"><path d="M37.678 101.588a5.422 6.764 48.161 01-3.882-1.746L11.69 71.897a5.28 6.588 48.161 011.86-8.394L47.9 35.671a5.598 6.984 48.161 018.787.028 5.59 6.975 48.161 01-1.954 8.821L29.149 65.464a3.124 3.897 48.161 00-1.092 4.928l16.215 20.83a5.434 6.78 48.161 01-6.594 10.366zM82.77 101.588a5.434 6.78 48.161 01-2-10.366l25.446-20.83a3.124 3.897 48.161 001.092-4.928L91.006 44.52a5.584 6.966 48.161 011.954-8.82 5.598 6.984 48.161 018.8-.029l22.017 27.832a5.28 6.588 48.161 01-1.86 8.394l-34.49 27.945a5.423 6.766 48.161 01-4.657 1.746z"/></g></svg>
